<?xml version="1.0" encoding="UTF-8" standalone="no"?>
<svg width="814px" height="197px" viewBox="0 0 814 197" version="1.1" xmlns="http://www.w3.org/2000/svg" xmlns:xlink="http://www.w3.org/1999/xlink">
    <!-- Generator: Sketch 42 (36781) - http://www.bohemiancoding.com/sketch -->
    <title>Group</title>
    <desc>Created with Sketch.</desc>
    <defs></defs>
    <g id="Page-1" stroke="none" stroke-width="1" fill="none" fill-rule="evenodd">
        <g id="Group" fill="#FFFFFF">
            <g id="wisdompetlogo" fill-rule="nonzero">
                <g id="Layer_1">
                    <path d="M113,0 C50.6,0 0,50.6 0,113 C0,145.8 14,175.4 36.4,196.1 L189.6,196.1 C212,175.4 226,145.8 226,113 C226,50.6 175.4,0 113,0 Z M144.8,195.7 C144.8,195.7 143.7,196.2 142.3,196 C140.9,195.9 139.6,195.3 139.6,195.3 C139.6,195.3 138.4,195.5 136.7,195.1 C135,194.6 126.1,192 126.1,192 L80.3,192 C79.7,192.3 79,192.6 78.2,192.8 C74.8,193.7 71.6,195.4 68,195.5 C64.4,195.6 62,195.7 61.4,194.8 C61.4,194.8 59.9,194.5 60.3,193 C60.6,191.5 61.8,189.7 62.7,189 C63.2,188.6 64.5,188.5 66,188.3 C62.5,187.4 58.6,185.9 53.9,183.1 C44.7,177.7 38,166.9 38,166.9 L38.4,166.7 L38,166.4 L38.2,166.2 L37.6,166 C37.6,166 39.9,164.7 41.7,164.9 C43.6,165.1 44.7,165.6 49.4,169.9 C54.2,174.3 57.2,176.1 64,179.7 C67.2,181.4 70.1,181.9 72.4,182.1 C72.1,181.3 71.9,180.5 71.8,180.1 C71.4,178.7 70,176.3 69.3,175.4 C68.6,174.5 67.6,166.3 67.5,164.8 C67.4,163.3 68.9,159.9 69.2,159.2 C69.5,158.5 70.6,154.1 73.1,149.5 C75.6,144.9 81.2,146.1 81.2,146.1 C81.2,146.1 82,145.3 82.6,143.9 C83.2,142.6 83.3,138.7 82.6,136.3 C81.8,133.9 81.9,128.3 82,124.2 C82.1,120.2 85.5,109 85.5,109 C85.5,109 85.4,107.2 85.2,105.3 C84.9,103.4 87.4,96.5 88.3,92.9 C89.2,89.3 91.9,87.6 92.8,85.9 C93.7,84.2 93.5,76.2 93.5,76.2 C93.6,74.2 93.4,73.3 93.2,72.7 C92.9,72.5 92.8,72.3 92.8,72.3 C92.8,72.3 92.6,73.2 92.6,74 C92.6,74.8 92.6,78 92.3,79.3 C92.1,80.6 90.7,82.2 89.4,82.8 C88.2,83.4 79.6,76.6 78.9,75.7 C78.2,74.8 76.2,72.5 77.1,70 C78,67.5 78.7,67.4 79.5,65.9 C80.4,64.4 81.9,59.3 82.6,58 C83.3,56.7 83.5,56.2 84.4,55.8 C85.4,55.4 87.3,54.9 88.9,53.5 C90.4,52.1 92.8,47.2 96.7,44.2 C100.6,41.2 105.6,40.4 106.2,40.2 C106.8,40 106.8,39.6 106.8,39.6 C107.5,38.1 112.4,38.1 115.4,38.3 C118.5,38.5 119.3,39.2 119.3,39.2 C119.3,39.2 121.7,40 122.7,40.4 C123.7,40.8 123.5,41.7 123.7,43.4 C123.9,45 123.7,47.7 123.3,49.6 C123,51.6 123.6,53.1 123.9,54.5 C124.2,55.9 124.3,57.2 123.7,57.5 C123.2,57.8 122.2,57.4 121,55.5 C119.8,53.6 119.2,49.6 119.2,49.7 C119.2,49.9 119.6,51.5 119.5,52.8 C119.4,54.1 120.1,56.1 120.2,56.6 C120.3,57.1 120.8,57.6 120.8,57.6 C121.3,58 122.4,59.7 122.5,60.2 C122.6,60.7 123.2,62.1 123.6,62.6 C124,63.1 124.7,64.2 125.3,66 C125.9,67.8 126.4,70.3 126.6,71.6 C126.8,73 126.4,73.6 125.6,74 C124.8,74.5 123.5,74 123.5,74 C123.1,74.8 122.1,75.9 120,77.2 C119.5,77.5 119,77.7 118.4,77.9 L119.1,83.1 L122.8,85.8 C122.8,85.8 125.8,88.9 129.6,93.7 C133.4,98.5 133.9,109.3 133.7,118.5 C133.5,126 130.7,131 129.6,132.5 C129.4,132.9 129.4,133.3 129.5,133.4 C129.9,134 130,135 130.3,135.9 C130.7,137 130.8,149.4 130.8,149.4 C131.7,150.3 135.6,155 136.5,156.6 C137.4,158.2 137.8,162.6 137.4,167.2 C137.1,170.4 133,177.8 130.5,181.3 L130.7,185.6 C131.6,186.2 133.3,187.1 135,187.2 C137.5,187.3 142.5,187.4 144,189.5 C145.6,191.5 146.5,192.8 146.4,194.1 C146.5,195.9 144.8,195.7 144.8,195.7 Z" id="Shape"></path>
                    <path d="M128.6,112.1 C131,112.2 133,113.6 133,113.6 C131.6,112.3 128.6,111.9 128.6,111.9 L128,111.9 C128,111.8 128,111.6 127.9,111.5 C128.1,111.4 128.6,111.1 129,110.9 C132.6,109.6 135.7,109.4 135.7,109.4 C134.5,109.3 131.2,110.1 129.5,110.6 C130,110.3 130.5,109.9 130.9,109.6 C132,108.6 133,106.6 133,106.6 C133,106.6 132.1,108.2 131,109.3 C130.5,109.8 129.7,110.3 129,110.7 C128.6,110.8 128.4,110.9 128.4,110.9 C128.4,110.9 128,111 127.7,111.2 C127.6,111.1 127.7,111 127.7,111 C127.7,110.7 127.3,110.4 127,110.2 L127,110.2 L127.1,110.2 C127.1,110.2 130.1,108.8 130.9,107.4 C130.9,107.4 129.7,108.9 127,110.1 L126.9,110.1 C126.6,109.9 126.1,109.7 126.1,109.5 C126.1,109.3 125.8,108.4 125.5,108.1 C125.2,107.9 124.7,106.3 124.5,105.7 C124.3,105.1 123.6,105 123.2,104.8 C122.8,104.6 122.1,103.8 122,103.5 C122,103.3 121.3,103.1 121.1,103.1 L121.1,103.1 C121.3,102.8 121.6,102.6 121.8,102.5 C121.7,102.6 121.5,102.7 121.3,102.8 C121,103.1 120.8,103.1 120.8,103.1 C120.9,102.8 121.6,102.3 121.6,102.3 C121.4,102.4 121.1,102.7 120.9,102.9 C120.7,103.1 120.5,103 120.5,103 C120.7,102.5 121.6,102 121.6,102 C121.1,102.2 120.4,102.8 120.3,103 L120.3,103 L120.3,102.8 C120.8,102 121.4,101.6 121.4,101.6 C121,101.8 120.5,102.4 120.3,102.7 L120.3,102.2 C120.4,102 120.5,101.9 120.5,101.9 C120.4,102 120.3,102.1 120.3,102.2 C120.2,101 120.1,98.7 119.8,97.1 C119.5,94.9 118.8,91.6 117.6,92.7 C116.4,93.8 113.7,97.8 112.5,102.8 L111,103 L111.1,102.7 L110.6,103 L108.3,104 C108.3,104 106.6,100 104.9,97.8 C103.2,95.7 101.2,95 100.1,96.6 C99,98.1 98.4,102.7 98.7,106.2 C99,109.7 100,112.9 100.4,113.5 C100.4,113.5 100.5,115.6 101.5,118.3 C102.5,121 104.6,124.1 105.5,125.6 C106.4,127.1 106.3,128.2 106.1,128.7 C105.9,129.2 102.1,135.5 101.3,137.3 C100.5,139.1 99.2,144 99.2,144.2 C99.2,144.4 98.7,144.9 97.9,145.9 C97.9,145.9 87.8,158.7 86.8,164.7 L85.9,170.7 C85.9,170.7 84,177.6 84.4,182.8 C84.8,188 85,189.5 85,189.5 C85,189.5 81.9,189.9 81.2,192.8 C80.5,196 83.6,196.9 87,196.9 C90.3,196.9 125.6,195.8 125.6,195.8 C125.6,195.8 126.3,195.9 126.2,195.7 C127.2,195.5 129.5,195 130,194.6 C130.7,194 131,192.9 130.5,192.3 C130,191.7 128,190.9 127,190.8 L126,190.7 C126,190.7 125.1,190 124.7,188.2 C124.3,186.4 123.3,180.8 123.2,179.9 C123.1,178.9 122.7,176.3 122.7,175.8 C122.7,175.2 123.1,171.5 123.2,170.9 C123.3,169.8 123.4,165.7 123.6,163.8 C123.6,163.8 123.2,162.9 124.3,160.7 L124.6,160.1 C125,159.3 125.3,158.6 125.5,158 C125.5,158 125.7,158.5 125.8,158.8 L125.8,157.8 C125.7,157.6 125.8,157.7 125.8,157.7 C125.8,157.7 126.1,158.6 126.3,158.7 C126.3,158.7 125.9,157.8 126,157.4 C126.1,157 126.2,156.7 126.2,156.7 C126.2,156.7 126.2,157.5 126.3,157.7 C126.3,157.7 126.5,156.6 126.4,156.1 C126.4,156.1 126.7,156.5 126.9,156.7 C126.9,156.5 127,155.6 127.1,155.2 C127.2,154.8 127.3,154.7 127.3,154.7 L127.5,155.1 C127.5,155.1 127.4,154.2 127.5,153.9 C127.6,153.6 128.1,151.6 128.2,151 C128.3,150.4 128.7,146.5 127.3,143.7 C125.9,140.9 122.5,133.9 122,132.1 C121.4,130.3 120.9,128.7 121.4,127 C121.7,125.9 122.4,124.2 123.1,123 L123.1,123 C123.4,122.5 124.9,120.7 125.6,120.1 C126.3,119.6 126.6,119.6 127.5,118 C128.5,116.4 127.5,114.3 127.5,114.3 L127.6,114.1 C128.1,113.9 128.1,113.1 128.1,113.1 C128.1,113.1 128.1,113.1 128.1,113 C128.6,113.4 129.3,113.8 129.8,114.1 C130.6,114.6 131.7,115 131.7,115 C131.7,115 130.6,114.5 130,114.2 C129.6,114 128.8,113.4 128.2,113 L128.2,113 C128.5,112.9 128.4,112.3 128.3,112.2 C128.3,112.2 128.3,112.2 128.3,112.1 C128.1,112.1 128.3,112.1 128.6,112.1 M127.9,111.4 L127.9,111.4 C128,111.3 128,111.3 128.1,111.3 C128,111.3 127.9,111.3 127.9,111.4" id="Shape"></path>
                </g>
            </g>
            <path d="M315.36973,47.2249788 L296.09814,47.2249788 L296.09814,36.5972634 C296.09814,35.1802347 295.389625,34.4717203 293.972597,34.4717203 L290.996836,34.4717203 C289.650659,34.4717203 288.871293,35.2510861 288.871293,36.5972634 L288.871293,47.0832759 L271.087583,47.0832759 C269.245446,47.0832759 268.324377,48.075196 268.324377,49.9173333 L268.536931,66.779975 C268.536931,68.1970037 269.245446,68.9055181 270.662474,68.9055181 L273.42568,68.9055181 C274.842709,68.9055181 275.551223,68.1261523 275.551223,66.779975 L275.551223,50.5549962 L309.134804,50.5549962 C305.521381,69.3306267 299.0739,83.4300624 282.069555,90.6569088 C279.731458,91.6488289 281.077635,94.9788464 283.557436,94.1994806 C304.812866,87.5394456 313.38589,72.0229812 317.920382,50.3424419 C318.062085,48.3586017 317.35357,47.2249788 315.36973,47.2249788 Z M367.799793,93.0658576 L367.799793,64.4418776 C371.554919,61.3952659 374.814085,58.490357 379.702834,53.5307565 C380.694754,52.467985 380.623902,51.4052135 379.561131,50.4841448 L377.364736,48.6420075 C376.301965,47.7917902 375.310045,47.8626417 374.388976,48.9962647 C365.107438,60.5450487 354.550574,68.6929638 341.301356,74.1485243 C338.892407,75.1404444 340.02603,78.1870561 342.50583,77.4785418 C349.590974,75.4947016 355.755049,72.0229812 361.210609,67.913598 L361.210609,93.0658576 C361.210609,94.4828863 361.989975,95.1914007 363.336152,95.1914007 L365.674249,95.1914007 C367.091278,95.1914007 367.799793,94.4828863 367.799793,93.0658576 Z M457.922819,91.011166 C456.789196,91.7905318 455.726424,91.6488289 454.947058,90.4443545 C449.633201,82.1547365 444.461046,75.565553 437.446754,69.0472209 C430.007353,78.328759 419.663043,85.7681597 407.689151,91.6488289 C406.484676,92.2156404 405.563608,92.0739375 405.067648,91.0820174 C404.500836,90.0900973 404.855093,89.2398801 406.059568,88.5313657 C424.055832,78.0453533 434.754399,64.7961348 442.406354,45.4536929 L414.774294,45.4536929 C413.428117,45.4536929 412.648751,44.7451785 412.648751,43.4698527 C412.648751,42.1945268 413.428117,41.5568639 414.774294,41.5568639 L448.995538,41.5568639 C451.546189,41.6277153 453.03407,42.8321898 451.829595,45.5953957 C447.649361,55.231191 444.744452,59.6948314 440.351663,65.7880549 C447.436806,70.8185068 454.380247,76.3449188 461.748796,85.6264569 C462.599013,86.7600798 462.457311,87.8937028 461.323688,88.6730686 L457.922819,91.011166 Z M459.694105,40.8483496 C459.694105,42.052824 458.98559,42.6196354 457.781116,42.6196354 L457.356007,42.6196354 C456.080681,42.6196354 455.51387,42.052824 455.51387,40.8483496 L455.51387,32.9838402 C455.51387,31.7793658 456.080681,31.2125543 457.356007,31.2125543 L457.781116,31.2125543 C458.98559,31.2125543 459.694105,31.7793658 459.694105,32.9838402 L459.694105,40.8483496 Z M466.070734,40.8483496 C466.070734,42.052824 465.503922,42.6196354 464.228596,42.6196354 L463.803488,42.6196354 C462.599013,42.6196354 461.890499,42.052824 461.890499,40.8483496 L461.890499,32.9838402 C461.890499,31.7793658 462.599013,31.2125543 463.803488,31.2125543 L464.228596,31.2125543 C465.503922,31.2125543 466.070734,31.7793658 466.070734,32.9838402 L466.070734,40.8483496 Z M525.58594,43.3990012 C527.640631,43.3990012 528.490849,44.6034756 527.711483,46.5873158 C524.168911,55.5854482 520.484636,62.6705917 515.099927,70.1808439 C516.304402,71.172764 517.508876,72.306387 518.855053,73.6525643 C519.776122,74.5736329 520.838894,75.565553 521.972516,76.7700274 C522.964437,77.832799 522.893585,78.8955705 521.830814,79.8166392 L519.421865,81.8004793 C518.359093,82.721548 517.296322,82.5089937 516.375253,81.3753707 C514.037156,78.328759 512.549276,76.5574731 511.415653,74.8570387 C502.771777,84.351131 492.923428,90.8694631 482.437415,95.403955 C481.232941,95.9707665 480.311872,95.6873607 479.815912,94.8371435 C479.249101,93.9160748 479.674209,93.0658576 480.878684,92.4281947 C491.364696,86.7600798 499.44176,80.3125992 507.022864,70.6059525 C502.346669,65.7172035 497.670474,61.8912259 491.860656,57.5692884 C488.955747,60.9701573 485.200621,63.8750661 480.099318,66.9925293 C478.965695,67.6301922 478.044626,67.4884894 477.265261,66.4965693 C476.556746,65.5755006 476.698449,64.6544319 477.902924,63.8042147 C487.60957,56.5773683 492.994279,48.075196 497.95388,36.3847091 C498.44984,35.1802347 499.370909,34.6842747 500.646234,35.0385318 L503.480292,35.8178976 C504.897321,36.1721548 505.393281,37.1640749 504.755618,38.5102522 C503.976252,40.2106866 503.196886,41.7694182 502.346669,43.3990012 L525.58594,43.3990012 Z M500.362829,46.7290187 C498.591543,49.8464819 497.103663,52.1137278 494.694714,54.9477852 C500.150274,58.4195056 505.322429,62.2454831 509.856921,66.2131635 C513.25779,60.3324944 516.375253,53.9558651 518.429945,46.7290187 L500.362829,46.7290187 Z M532.600232,40.6357952 L532.600232,32.7712859 C532.600232,31.5668115 531.891717,31 530.687243,31 L530.262134,31 C528.986809,31 528.419997,31.5668115 528.419997,32.7712859 L528.419997,40.5649438 C528.703403,41.7694182 528.986809,42.4070811 530.262134,42.4070811 L530.687243,42.4070811 C531.891717,42.4070811 532.600232,41.8402697 532.600232,40.6357952 Z M538.976861,40.6357952 L538.976861,32.7712859 C538.976861,31.5668115 538.41005,31 537.134724,31 L536.709615,31 C535.505141,31 534.796626,31.5668115 534.796626,32.7712859 L534.796626,40.6357952 C534.796626,41.8402697 535.505141,42.4070811 536.709615,42.4070811 L537.134724,42.4070811 C538.41005,42.4070811 538.976861,41.8402697 538.976861,40.6357952 Z M599.200581,92.0030861 L603.09741,90.0192459 C604.372736,89.381583 604.656142,88.3188114 603.947628,87.114337 C597.854404,76.9825817 592.398844,69.8265867 585.3137,63.0248489 C584.32178,62.0329288 583.400711,62.0329288 582.479643,62.8122946 C581.558574,63.6625118 581.629425,64.5835805 582.479643,65.646352 C585.738809,69.4014781 587.651797,72.306387 590.627558,78.5413133 L559.736332,84.4219825 C566.325515,70.676804 572.843847,56.364814 577.874299,41.1317553 C578.299408,39.785578 577.803448,38.9353608 576.45727,38.5102522 L571.922779,37.1640749 C570.576601,36.7389663 569.655533,37.3057778 569.301275,38.7228065 C563.987418,58.7737628 556.19376,78.1870561 553.218,85.2013483 L549.675428,85.7681597 C548.329251,85.9807141 547.762439,86.7600798 547.904142,88.1062571 L548.045845,89.381583 C548.187548,90.7986117 549.108616,91.4362746 550.525645,91.1528689 L592.823952,82.5089937 C594.028427,85.1304968 595.020347,87.7519999 596.366524,90.9403145 C596.933335,92.2864918 597.925255,92.640749 599.200581,92.0030861 Z M291.634499,127.145398 C290.855133,126.224329 290.075768,125.232409 289.22555,124.382192 C288.375333,123.531975 287.454265,122.894312 286.391493,122.681758 C284.903613,122.327501 283.061476,123.390272 281.148487,125.161558 C280.865081,125.374112 276.188886,130.404564 268.040971,140.040359 C267.119903,141.103131 265.773725,141.244834 264.781805,140.323765 L262.727114,138.410776 C261.735193,137.489708 261.735193,136.001828 262.868816,135.080759 C266.340537,132.104999 269.245446,129.483496 272.079503,126.578587 C273.000572,125.586667 273.992492,124.453044 275.055263,123.390272 C278.101875,120.131106 282.352961,117.084494 287.525116,118.005563 C289.650659,118.430672 291.351094,119.35174 292.697271,120.485363 C293.476637,120.981323 295.743883,123.319421 296.239843,123.815381 C304.104352,131.892444 311.756307,140.182062 322.667428,150.951481 C323.588497,151.872549 323.588497,153.147875 322.667428,154.068944 L320.116776,156.690447 C319.195708,157.682367 317.778679,157.611515 316.85761,156.548744 L291.634499,127.145398 Z M311.685456,110.920419 C315.582284,110.920419 318.770599,114.037883 318.770599,118.005563 C318.770599,121.973243 315.582284,125.161558 311.685456,125.161558 C307.788627,125.161558 304.600312,121.973243 304.600312,118.005563 C304.600312,114.037883 307.859478,110.920419 311.685456,110.920419 Z M311.685456,114.037883 C309.559912,114.037883 307.717775,115.88002 307.717775,118.005563 C307.717775,120.131106 309.559912,122.114946 311.685456,122.114946 C313.810999,122.114946 315.723987,120.131106 315.723987,118.005563 C315.723987,115.88002 313.810999,114.037883 311.685456,114.037883 Z M361.848272,137.702262 C360.572946,138.127371 359.79358,137.702262 359.439323,136.426936 C358.163997,132.034147 356.605266,127.924764 354.408871,123.673678 C353.133545,121.193878 356.746969,119.705997 358.234849,121.548135 C361.352312,125.374112 363.690409,129.058387 366.241061,134.017987 C366.878724,135.293313 366.524467,136.072679 365.249141,136.497788 L361.848272,137.702262 Z M383.599663,124.523895 C384.874989,124.949004 385.370949,125.870072 384.94584,127.21625 C379.348577,145.283366 371.62577,157.398961 353.416951,166.397093 C352.212477,166.963905 351.220557,166.751351 350.653745,165.830282 C350.016082,164.838362 350.441191,163.988145 351.645665,163.27963 C367.374684,154.281498 372.688542,143.299525 377.718994,124.878152 C378.073251,123.531975 378.994319,123.036015 380.340497,123.461123 L383.599663,124.523895 Z M347.748836,142.874417 C346.544362,143.370377 345.764996,142.945268 345.410739,141.669942 C344.135413,137.418856 342.50583,133.522027 340.451138,129.554347 C339.175813,127.074547 342.576681,125.728369 344.135413,127.499655 C347.323728,131.042227 349.590974,134.797353 351.999922,139.048439 C352.779288,140.323765 352.425031,141.103131 351.078854,141.599091 L347.748836,142.874417 Z M456.930899,144.574851 L458.277076,142.095051 C458.843887,141.03228 458.48963,139.756954 457.356007,139.119291 C446.090629,132.955216 436.667388,128.70413 428.165216,125.728369 L428.165216,109.007431 C428.165216,107.732105 427.244147,106.811036 425.968821,106.811036 L423.276467,106.811036 C422.001141,106.811036 421.080072,107.732105 421.080072,109.007431 L421.080072,163.208779 C421.080072,164.484105 422.001141,165.405173 423.276467,165.405173 L425.968821,165.405173 C427.244147,165.405173 428.165216,164.484105 428.165216,163.208779 L428.165216,129.766901 C435.321211,133.522027 444.17764,138.977588 453.742584,145.354217 C454.947058,146.133583 456.293236,145.708474 456.930899,144.574851 Z M526.932117,115.809168 L502.063263,115.738317 C503.40944,113.754477 504.259658,112.266597 505.251578,110.424459 C505.889241,109.149134 505.534983,108.157213 504.188806,107.590402 L500.787937,106.173373 C499.512611,105.677413 498.520691,106.102522 498.024731,107.377848 C493.702794,118.218117 487.538719,127.641358 478.540586,135.222462 C476.698449,136.781193 478.469735,139.615251 480.878684,138.198222 C489.168302,133.309473 495.119822,126.436884 499.654314,119.210037 L520.697191,119.210037 C513.328641,139.048439 503.834549,151.518292 484.492107,161.650047 C482.15401,162.854522 483.925296,165.971985 486.263393,164.980065 C509.644367,154.777458 520.697191,141.811645 530.332986,119.776849 C531.324906,117.509603 529.341066,115.667466 526.932117,115.809168 Z M593.745021,126.791141 C593.745021,145.850177 584.605186,159.31195 564.766784,165.830282 C563.420606,166.255391 562.570389,165.901133 562.216132,164.909213 C561.861875,163.846442 562.357835,163.067076 563.633161,162.500265 C579.716437,155.911081 585.951363,144.574851 585.951363,126.791141 L585.951363,109.715945 C585.951363,108.298916 586.730729,107.590402 588.076906,107.590402 L591.619478,107.590402 C593.036506,107.590402 593.745021,108.298916 593.745021,109.715945 L593.745021,126.791141 Z M556.68972,111.628934 C556.68972,110.282756 557.469086,109.503391 558.815263,109.503391 L561.861875,109.503391 C563.208052,109.503391 563.987418,110.211905 563.987418,111.628934 L563.987418,139.686102 C563.987418,141.03228 563.278903,141.811645 561.861875,141.811645 L558.815263,141.811645 C557.469086,141.811645 556.68972,141.03228 556.68972,139.686102 L556.68972,111.628934 Z M623.715178,118.997483 L623.715178,119.280889 C623.715178,120.627066 624.423692,121.406432 625.840721,121.406432 L666.367742,121.406432 C667.784771,121.406432 668.493285,120.627066 668.493285,119.280889 L668.493285,118.997483 C668.493285,117.580454 667.784771,116.87194 666.367742,116.87194 L625.840721,116.87194 C624.494544,116.87194 623.715178,117.580454 623.715178,118.997483 Z M617.267697,153.218726 L617.267697,153.502132 C617.267697,154.848309 618.047063,155.627675 619.39324,155.627675 L672.815223,155.627675 C674.232252,155.627675 674.940766,154.848309 674.940766,153.502132 L674.940766,153.218726 C674.940766,151.801698 674.1614,151.093183 672.815223,151.093183 L619.39324,151.093183 C618.047063,151.093183 617.267697,151.801698 617.267697,153.218726 Z M716.10545,137.702262 C714.830124,138.127371 714.050758,137.702262 713.696501,136.426936 C712.421175,132.034147 710.862444,127.924764 708.666049,123.673678 C707.390724,121.193878 711.004147,119.705997 712.492027,121.548135 C715.60949,125.374112 717.947587,129.058387 720.498239,134.017987 C721.135902,135.293313 720.781645,136.072679 719.506319,136.497788 L716.10545,137.702262 Z M737.856841,124.523895 C739.132167,124.949004 739.628127,125.870072 739.203018,127.21625 C733.605755,145.283366 725.882948,157.398961 707.674129,166.397093 C706.469655,166.963905 705.477735,166.751351 704.910923,165.830282 C704.27326,164.838362 704.698369,163.988145 705.902843,163.27963 C721.631862,154.281498 726.94572,143.299525 731.976172,124.878152 C732.330429,123.531975 733.251498,123.036015 734.597675,123.461123 L737.856841,124.523895 Z M702.006014,142.874417 C700.80154,143.370377 700.022174,142.945268 699.667917,141.669942 C698.392591,137.418856 696.763008,133.522027 694.708317,129.554347 C693.432991,127.074547 696.83386,125.728369 698.392591,127.499655 C701.580906,131.042227 703.848152,134.797353 706.257101,139.048439 C707.036466,140.323765 706.682209,141.103131 705.336032,141.599091 L702.006014,142.874417 Z M810.33786,115.809168 L785.469006,115.738317 C786.815183,113.754477 787.6654,112.266597 788.65732,110.424459 C789.294983,109.149134 788.940726,108.157213 787.594549,107.590402 L784.19368,106.173373 C782.918354,105.677413 781.926434,106.102522 781.430474,107.377848 C777.108536,118.218117 770.944461,127.641358 761.946329,135.222462 C760.104192,136.781193 761.875478,139.615251 764.284426,138.198222 C772.574044,133.309473 778.525565,126.436884 783.060057,119.210037 L804.102933,119.210037 C796.734384,139.048439 787.240291,151.518292 767.89785,161.650047 C765.559752,162.854522 767.331038,165.971985 769.669135,164.980065 C793.050109,154.777458 804.102933,141.811645 813.738728,119.776849 C814.730649,117.509603 812.746808,115.667466 810.33786,115.809168 Z" id="ウィズダム-ペットクリニック"></path>
        </g>
    </g>
</svg>